ffmpeg started on 2025-05-25 at 19:11:31
Report written to "D:\Convert\FFMetrics\reports\ssim_report-6.txt"
Log level: 32
Command line:
ffmpeg -hide_banner -nostdin -i "G:\\\xc0\xed\xe8\xec\xe5\\\xce\xed\xe3\xee\xe8\xed\xe3\xe8\\!_34_\xc2\xe5\xf1\xed\xe0_2024\\JamClub\\\xc1\xee\xf0\xfc\xe1\xe0 \xe2 \xef\xf0\xff\xec\xee\xec \xfd\xf4\xe8\xf0\xe5\\[JAM_CLUB]_Kenka_Dokugaku_11_[1080p][RUS][DUB]_HEVC.mkv" -i "G:\\\xc0\xed\xe8\xec\xe5\\\xce\xed\xe3\xee\xe8\xed\xe3\xe8\\!_34_\xc2\xe5\xf1\xed\xe0_2024\\JamClub\\\xc1\xee\xf0\xfc\xe1\xe0 \xe2 \xef\xf0\xff\xec\xee\xec \xfd\xf4\xe8\xf0\xe5\\[JAM_CLUB]_Kenka_Dokugaku_11_[1080p][RUS][DUB].mp4" -lavfi "[0:v]settb=AVTB,setpts=PTS-STARTPTS,format=pix_fmts=yuv420p10,fps=24000/1001,scale=1920:1080:flags=bicubic[main];[1:v]settb=AVTB,setpts=PTS-STARTPTS,format=pix_fmts=yuv420p,fps=24000/1001,scale=1920:1080:flags=bicubic[ref];[main][ref]ssim=eof_action=endall:stats_file='D\\:/Convert/FFMetrics/logs/ssim_logfile-6.txt'" -f null -
Input #0, matroska,webm, from 'G:\Аниме\Онгоинги\!_34_Весна_2024\JamClub\Борьба в прямом эфире\[JAM_CLUB]_Kenka_Dokugaku_11_[1080p][RUS][DUB]_HEVC.mkv':
  Metadata:
    COMPATIBLE_BRANDS: isomiso2avc1mp41
    MAJOR_BRAND     : isom
    MINOR_VERSION   : 512
    ENCODER         : Lavf61.7.100
  Duration: 00:23:17.40, start: -0.001000, bitrate: 1345 kb/s
  Stream #0:0: Video: hevc (Main 10), yuv420p10le(tv, bt709, progressive), 1920x1080 [SAR 1:1 DAR 16:9], 23.98 fps, 23.98 tbr, 1k tbn (default)
      Metadata:
        HANDLER_NAME    : VideoHandler
        VENDOR_ID       : [0][0][0][0]
        ENCODER         : Lavc61.19.100 libx265
        BPS             : 1145468
        DURATION        : 00:23:17.270708333
        NUMBER_OF_FRAMES: 33501
        NUMBER_OF_BYTES : 200066169
        _STATISTICS_WRITING_APP: mkvpropedit v66.0.0 ('Josie') 64-bit
        _STATISTICS_WRITING_DATE_UTC: 2025-05-25 14:58:55
        _STATISTICS_TAGS: BPS DURATION NUMBER_OF_FRAMES NUMBER_OF_BYTES
  Stream #0:1(eng): Audio: aac (LC), 48000 Hz, stereo, fltp (default)
      Metadata:
        HANDLER_NAME    : SoundHandler
        VENDOR_ID       : [0][0][0][0]
        ENCODER         : Lavc61.19.100 aac
        BPS             : 196179
        DURATION        : 00:23:17.357000000
        NUMBER_OF_FRAMES: 65502
        NUMBER_OF_BYTES : 34266638
        _STATISTICS_WRITING_APP: mkvpropedit v66.0.0 ('Josie') 64-bit
        _STATISTICS_WRITING_DATE_UTC: 2025-05-25 14:58:55
        _STATISTICS_TAGS: BPS DURATION NUMBER_OF_FRAMES NUMBER_OF_BYTES
Input #1, mov,mp4,m4a,3gp,3g2,mj2, from 'G:\Аниме\Онгоинги\!_34_Весна_2024\JamClub\Борьба в прямом эфире\[JAM_CLUB]_Kenka_Dokugaku_11_[1080p][RUS][DUB].mp4':
  Metadata:
    major_brand     : isom
    minor_version   : 512
    compatible_brands: isomiso2avc1mp41
    encoder         : Lavf60.16.100
  Duration: 00:23:17.38, start: 0.000000, bitrate: 4207 kb/s
  Stream #1:0[0x1](und): Video: h264 (High) (avc1 / 0x31637661), yuv420p(progressive), 1920x1080 [SAR 1:1 DAR 16:9], 4009 kb/s, 23.98 fps, 23.98 tbr, 90k tbn (default)
      Metadata:
        handler_name    : VideoHandler
        vendor_id       : [0][0][0][0]
  Stream #1:1[0x2](eng): Audio: aac (LC) (mp4a / 0x6134706D), 48000 Hz, stereo, fltp, 191 kb/s (default)
      Metadata:
        handler_name    : SoundHandler
        vendor_id       : [0][0][0][0]
Stream mapping:
  Stream #0:0 (hevc) -> settb:default
  Stream #1:0 (h264) -> settb:default
  ssim:default -> Stream #0:0 (wrapped_avframe)
  Stream #0:1 -> #0:1 (aac (native) -> pcm_s16le (native))
Output #0, null, to 'pipe:':
  Metadata:
    COMPATIBLE_BRANDS: isomiso2avc1mp41
    MAJOR_BRAND     : isom
    MINOR_VERSION   : 512
    encoder         : Lavf61.7.100
  Stream #0:0: Video: wrapped_avframe, yuv420p10le(tv, bt709, progressive), 1920x1080 [SAR 1:1 DAR 16:9], q=2-31, 200 kb/s, 23.98 fps, 23.98 tbn
      Metadata:
        encoder         : Lavc61.19.100 wrapped_avframe
  Stream #0:1(eng): Audio: pcm_s16le, 48000 Hz, stereo, s16, 1536 kb/s (default)
      Metadata:
        HANDLER_NAME    : SoundHandler
        VENDOR_ID       : [0][0][0][0]
        _STATISTICS_TAGS: BPS DURATION NUMBER_OF_FRAMES NUMBER_OF_BYTES
        BPS             : 196179
        DURATION        : 00:23:17.357000000
        NUMBER_OF_FRAMES: 65502
        NUMBER_OF_BYTES : 34266638
        _STATISTICS_WRITING_APP: mkvpropedit v66.0.0 ('Josie') 64-bit
        _STATISTICS_WRITING_DATE_UTC: 2025-05-25 14:58:55
        encoder         : Lavc61.19.100 pcm_s16le
frame=  112 fps=0.0 q=-0.0 size=N/A time=00:00:04.67 bitrate=N/A speed=9.11x    frame=  275 fps=268 q=-0.0 size=N/A time=00:00:11.46 bitrate=N/A speed=11.2x    frame=  482 fps=311 q=-0.0 size=N/A time=00:00:20.10 bitrate=N/A speed=  13x    frame=  726 fps=352 q=-0.0 size=N/A time=00:00:30.28 bitrate=N/A speed=14.7x    frame=  963 fps=375 q=-0.0 size=N/A time=00:00:40.20 bitrate=N/A speed=15.6x    frame= 1195 fps=387 q=-0.0 size=N/A time=00:00:49.84 bitrate=N/A speed=16.1x    frame= 1403 fps=390 q=-0.0 size=N/A time=00:00:58.51 bitrate=N/A speed=16.2x    frame= 1611 fps=390 q=-0.0 size=N/A time=00:01:07.19 bitrate=N/A speed=16.3x    frame= 1809 fps=390 q=-0.0 size=N/A time=00:01:15.45 bitrate=N/A speed=16.3x    frame= 2035 fps=395 q=-0.0 size=N/A time=00:01:24.87 bitrate=N/A speed=16.5x    frame= 2241 fps=395 q=-0.0 size=N/A time=00:01:33.46 bitrate=N/A speed=16.5x    frame= 2456 fps=398 q=-0.0 size=N/A time=00:01:42.43 bitrate=N/A speed=16.6x    frame= 2683 fps=401 q=-0.0 size=N/A time=00:01:51.90 bitrate=N/A speed=16.7x    frame= 2938 fps=407 q=-0.0 size=N/A time=00:02:02.53 bitrate=N/A speed=  17x    frame= 3099 fps=401 q=-0.0 size=N/A time=00:02:09.25 bitrate=N/A speed=16.7x    frame= 3249 fps=394 q=-0.0 size=N/A time=00:02:15.51 bitrate=N/A speed=16.4x    frame= 3414 fps=389 q=-0.0 size=N/A time=00:02:22.39 bitrate=N/A speed=16.2x    frame= 3611 fps=389 q=-0.0 size=N/A time=00:02:30.60 bitrate=N/A speed=16.2x    frame= 3854 fps=393 q=-0.0 size=N/A time=00:02:40.74 bitrate=N/A speed=16.4x    frame= 4069 fps=395 q=-0.0 size=N/A time=00:02:49.71 bitrate=N/A speed=16.5x    frame= 4267 fps=394 q=-0.0 size=N/A time=00:02:57.96 bitrate=N/A speed=16.4x    frame= 4467 fps=394 q=-0.0 size=N/A time=00:03:06.31 bitrate=N/A speed=16.4x    frame= 4734 fps=399 q=-0.0 size=N/A time=00:03:17.44 bitrate=N/A speed=16.7x    frame= 4993 fps=404 q=-0.0 size=N/A time=00:03:28.24 bitrate=N/A speed=16.8x    frame= 5243 fps=407 q=-0.0 size=N/A time=00:03:38.67 bitrate=N/A speed=  17x    frame= 5511 fps=411 q=-0.0 size=N/A time=00:03:49.85 bitrate=N/A speed=17.2x    frame= 5774 fps=415 q=-0.0 size=N/A time=00:04:00.82 bitrate=N/A speed=17.3x    frame= 6031 fps=418 q=-0.0 size=N/A time=00:04:11.54 bitrate=N/A speed=17.4x    frame= 6293 fps=421 q=-0.0 size=N/A time=00:04:22.47 bitrate=N/A speed=17.6x    frame= 6543 fps=423 q=-0.0 size=N/A time=00:04:32.89 bitrate=N/A speed=17.7x    frame= 6796 fps=425 q=-0.0 size=N/A time=00:04:43.44 bitrate=N/A speed=17.7x    frame= 7025 fps=426 q=-0.0 size=N/A time=00:04:53.00 bitrate=N/A speed=17.8x    frame= 7228 fps=425 q=-0.0 size=N/A time=00:05:01.46 bitrate=N/A speed=17.7x    frame= 7511 fps=429 q=-0.0 size=N/A time=00:05:13.27 bitrate=N/A speed=17.9x    frame= 7790 fps=432 q=-0.0 size=N/A time=00:05:24.90 bitrate=N/A speed=  18x    frame= 8077 fps=435 q=-0.0 size=N/A time=00:05:36.87 bitrate=N/A speed=18.2x    frame= 8338 fps=437 q=-0.0 size=N/A time=00:05:47.76 bitrate=N/A speed=18.2x    frame= 8595 fps=439 q=-0.0 size=N/A time=00:05:58.48 bitrate=N/A speed=18.3x    frame= 8774 fps=436 q=-0.0 size=N/A time=00:06:05.94 bitrate=N/A speed=18.2x    frame= 8991 fps=436 q=-0.0 size=N/A time=00:06:14.99 bitrate=N/A speed=18.2x    frame= 9192 fps=435 q=-0.0 size=N/A time=00:06:23.38 bitrate=N/A speed=18.1x    frame= 9439 fps=436 q=-0.0 size=N/A time=00:06:33.68 bitrate=N/A speed=18.2x    frame= 9705 fps=438 q=-0.0 size=N/A time=00:06:44.77 bitrate=N/A speed=18.3x    frame= 9943 fps=438 q=-0.0 size=N/A time=00:06:54.70 bitrate=N/A speed=18.3x    frame=10212 fps=440 q=-0.0 size=N/A time=00:07:05.92 bitrate=N/A speed=18.4x    frame=10488 fps=442 q=-0.0 size=N/A time=00:07:17.43 bitrate=N/A speed=18.4x    frame=10752 fps=444 q=-0.0 size=N/A time=00:07:28.44 bitrate=N/A speed=18.5x    frame=10977 fps=444 q=-0.0 size=N/A time=00:07:37.83 bitrate=N/A speed=18.5x    frame=11223 fps=444 q=-0.0 size=N/A time=00:07:48.09 bitrate=N/A speed=18.5x    frame=11490 fps=446 q=-0.0 size=N/A time=00:07:59.22 bitrate=N/A speed=18.6x    frame=11733 fps=446 q=-0.0 size=N/A time=00:08:09.36 bitrate=N/A speed=18.6x    frame=11988 fps=447 q=-0.0 size=N/A time=00:08:19.99 bitrate=N/A speed=18.7x    frame=12190 fps=446 q=-0.0 size=N/A time=00:08:28.42 bitrate=N/A speed=18.6x    frame=12390 fps=445 q=-0.0 size=N/A time=00:08:36.76 bitrate=N/A speed=18.6x    frame=12607 fps=445 q=-0.0 size=N/A time=00:08:45.81 bitrate=N/A speed=18.5x    frame=12857 fps=445 q=-0.0 size=N/A time=00:08:56.24 bitrate=N/A speed=18.6x    frame=13085 fps=445 q=-0.0 size=N/A time=00:09:05.75 bitrate=N/A speed=18.6x    frame=13327 fps=446 q=-0.0 size=N/A time=00:09:15.84 bitrate=N/A speed=18.6x    frame=13570 fps=446 q=-0.0 size=N/A time=00:09:25.98 bitrate=N/A speed=18.6x    frame=13784 fps=446 q=-0.0 size=N/A time=00:09:34.90 bitrate=N/A speed=18.6x    frame=14002 fps=445 q=-0.0 size=N/A time=00:09:44.00 bitrate=N/A speed=18.6x    frame=14244 fps=446 q=-0.0 size=N/A time=00:09:54.09 bitrate=N/A speed=18.6x    frame=14471 fps=446 q=-0.0 size=N/A time=00:10:03.56 bitrate=N/A speed=18.6x    frame=14690 fps=445 q=-0.0 size=N/A time=00:10:12.69 bitrate=N/A speed=18.6x    frame=14950 fps=446 q=-0.0 size=N/A time=00:10:23.53 bitrate=N/A speed=18.6x    frame=15161 fps=446 q=-0.0 size=N/A time=00:10:32.34 bitrate=N/A speed=18.6x    frame=15372 fps=445 q=-0.0 size=N/A time=00:10:41.14 bitrate=N/A speed=18.6x    frame=15580 fps=444 q=-0.0 size=N/A time=00:10:49.81 bitrate=N/A speed=18.5x    frame=15825 fps=445 q=-0.0 size=N/A time=00:11:00.03 bitrate=N/A speed=18.6x    frame=16091 fps=446 q=-0.0 size=N/A time=00:11:11.12 bitrate=N/A speed=18.6x    frame=16329 fps=446 q=-0.0 size=N/A time=00:11:21.05 bitrate=N/A speed=18.6x    frame=16616 fps=448 q=-0.0 size=N/A time=00:11:33.02 bitrate=N/A speed=18.7x    frame=16893 fps=449 q=-0.0 size=N/A time=00:11:44.57 bitrate=N/A speed=18.7x    frame=17179 fps=450 q=-0.0 size=N/A time=00:11:56.50 bitrate=N/A speed=18.8x    frame=17443 fps=451 q=-0.0 size=N/A time=00:12:07.51 bitrate=N/A speed=18.8x    frame=17703 fps=452 q=-0.0 size=N/A time=00:12:18.36 bitrate=N/A speed=18.8x    frame=17948 fps=452 q=-0.0 size=N/A time=00:12:28.58 bitrate=N/A speed=18.9x    frame=18195 fps=453 q=-0.0 size=N/A time=00:12:38.88 bitrate=N/A speed=18.9x    frame=18482 fps=454 q=-0.0 size=N/A time=00:12:50.85 bitrate=N/A speed=18.9x    frame=18721 fps=454 q=-0.0 size=N/A time=00:13:00.82 bitrate=N/A speed=18.9x    frame=18951 fps=454 q=-0.0 size=N/A time=00:13:10.41 bitrate=N/A speed=18.9x    frame=19222 fps=455 q=-0.0 size=N/A time=00:13:21.71 bitrate=N/A speed=  19x    frame=19507 fps=456 q=-0.0 size=N/A time=00:13:33.60 bitrate=N/A speed=  19x    frame=19795 fps=457 q=-0.0 size=N/A time=00:13:45.61 bitrate=N/A speed=19.1x    frame=20058 fps=458 q=-0.0 size=N/A time=00:13:56.58 bitrate=N/A speed=19.1x    frame=20329 fps=459 q=-0.0 size=N/A time=00:14:07.88 bitrate=N/A speed=19.1x    frame=20598 fps=459 q=-0.0 size=N/A time=00:14:19.10 bitrate=N/A speed=19.2x    frame=20851 fps=460 q=-0.0 size=N/A time=00:14:29.66 bitrate=N/A speed=19.2x    frame=21129 fps=460 q=-0.0 size=N/A time=00:14:41.25 bitrate=N/A speed=19.2x    frame=21376 fps=461 q=-0.0 size=N/A time=00:14:51.55 bitrate=N/A speed=19.2x    frame=21649 fps=461 q=-0.0 size=N/A time=00:15:02.94 bitrate=N/A speed=19.2x    frame=21898 fps=462 q=-0.0 size=N/A time=00:15:13.32 bitrate=N/A speed=19.3x    frame=22146 fps=462 q=-0.0 size=N/A time=00:15:23.67 bitrate=N/A speed=19.3x    frame=22419 fps=463 q=-0.0 size=N/A time=00:15:35.05 bitrate=N/A speed=19.3x    frame=22680 fps=463 q=-0.0 size=N/A time=00:15:45.94 bitrate=N/A speed=19.3x    frame=22905 fps=463 q=-0.0 size=N/A time=00:15:55.32 bitrate=N/A speed=19.3x    frame=23122 fps=462 q=-0.0 size=N/A time=00:16:04.38 bitrate=N/A speed=19.3x    frame=23333 fps=462 q=-0.0 size=N/A time=00:16:13.18 bitrate=N/A speed=19.3x    frame=23603 fps=462 q=-0.0 size=N/A time=00:16:24.44 bitrate=N/A speed=19.3x    frame=23808 fps=462 q=-0.0 size=N/A time=00:16:32.99 bitrate=N/A speed=19.3x    frame=24068 fps=462 q=-0.0 size=N/A time=00:16:43.83 bitrate=N/A speed=19.3x    frame=24315 fps=462 q=-0.0 size=N/A time=00:16:54.13 bitrate=N/A speed=19.3x    frame=24513 fps=461 q=-0.0 size=N/A time=00:17:02.39 bitrate=N/A speed=19.2x    frame=24732 fps=461 q=-0.0 size=N/A time=00:17:11.53 bitrate=N/A speed=19.2x    frame=24958 fps=461 q=-0.0 size=N/A time=00:17:20.95 bitrate=N/A speed=19.2x    frame=25092 fps=459 q=-0.0 size=N/A time=00:17:26.58 bitrate=N/A speed=19.1x    frame=25221 fps=457 q=-0.0 size=N/A time=00:17:31.92 bitrate=N/A speed=19.1x    frame=25346 fps=455 q=-0.0 size=N/A time=00:17:37.13 bitrate=N/A speed=  19x    frame=25526 fps=454 q=-0.0 size=N/A time=00:17:44.64 bitrate=N/A speed=18.9x    frame=25695 fps=453 q=-0.0 size=N/A time=00:17:51.69 bitrate=N/A speed=18.9x    frame=25905 fps=452 q=-0.0 size=N/A time=00:18:00.45 bitrate=N/A speed=18.9x    frame=26122 fps=452 q=-0.0 size=N/A time=00:18:09.50 bitrate=N/A speed=18.9x    frame=26370 fps=452 q=-0.0 size=N/A time=00:18:19.84 bitrate=N/A speed=18.9x    frame=26647 fps=453 q=-0.0 size=N/A time=00:18:31.40 bitrate=N/A speed=18.9x    frame=26895 fps=453 q=-0.0 size=N/A time=00:18:41.74 bitrate=N/A speed=18.9x    frame=27162 fps=454 q=-0.0 size=N/A time=00:18:52.88 bitrate=N/A speed=18.9x    frame=27386 fps=454 q=-0.0 size=N/A time=00:19:02.22 bitrate=N/A speed=18.9x    frame=27653 fps=454 q=-0.0 size=N/A time=00:19:13.36 bitrate=N/A speed=18.9x    frame=27918 fps=455 q=-0.0 size=N/A time=00:19:24.41 bitrate=N/A speed=  19x    frame=28182 fps=455 q=-0.0 size=N/A time=00:19:35.42 bitrate=N/A speed=  19x    frame=28429 fps=455 q=-0.0 size=N/A time=00:19:45.72 bitrate=N/A speed=  19x    frame=28692 fps=456 q=-0.0 size=N/A time=00:19:56.69 bitrate=N/A speed=  19x    frame=28864 fps=455 q=-0.0 size=N/A time=00:20:03.86 bitrate=N/A speed=  19x    frame=29068 fps=454 q=-0.0 size=N/A time=00:20:12.37 bitrate=N/A speed=  19x    frame=29319 fps=455 q=-0.0 size=N/A time=00:20:22.84 bitrate=N/A speed=  19x    frame=29600 fps=455 q=-0.0 size=N/A time=00:20:34.56 bitrate=N/A speed=  19x    frame=29870 fps=456 q=-0.0 size=N/A time=00:20:45.82 bitrate=N/A speed=  19x    frame=30132 fps=456 q=-0.0 size=N/A time=00:20:56.75 bitrate=N/A speed=  19x    frame=30354 fps=456 q=-0.0 size=N/A time=00:21:06.01 bitrate=N/A speed=  19x    frame=30589 fps=456 q=-0.0 size=N/A time=00:21:15.81 bitrate=N/A speed=  19x    frame=30794 fps=456 q=-0.0 size=N/A time=00:21:24.36 bitrate=N/A speed=  19x    frame=30995 fps=455 q=-0.0 size=N/A time=00:21:32.74 bitrate=N/A speed=  19x    frame=31249 fps=455 q=-0.0 size=N/A time=00:21:43.34 bitrate=N/A speed=  19x    frame=31477 fps=455 q=-0.0 size=N/A time=00:21:52.85 bitrate=N/A speed=  19x    frame=31691 fps=455 q=-0.0 size=N/A time=00:22:01.77 bitrate=N/A speed=  19x    frame=31914 fps=455 q=-0.0 size=N/A time=00:22:11.07 bitrate=N/A speed=  19x    frame=32125 fps=454 q=-0.0 size=N/A time=00:22:19.88 bitrate=N/A speed=  19x    frame=32349 fps=454 q=-0.0 size=N/A time=00:22:29.22 bitrate=N/A speed=  19x    frame=32617 fps=455 q=-0.0 size=N/A time=00:22:40.40 bitrate=N/A speed=  19x    frame=32851 fps=455 q=-0.0 size=N/A time=00:22:50.16 bitrate=N/A speed=  19x    frame=33077 fps=455 q=-0.0 size=N/A time=00:22:59.58 bitrate=N/A speed=  19x    frame=33297 fps=455 q=-0.0 size=N/A time=00:23:08.76 bitrate=N/A speed=  19x    [Parsed_ssim_10 @ 000002ad0f298480] SSIM Y:0.993984 (22.206752) U:0.995204 (23.191527) V:0.995049 (23.053151) All:0.994365 (22.490869)
[out#0/null @ 000002ad03264700] video:14395KiB audio:262008KiB subtitle:0KiB other streams:0KiB global headers:0KiB muxing overhead: unknown
frame=33501 fps=455 q=-0.0 Lsize=N/A time=00:23:17.27 bitrate=N/A speed=  19x    
